<svg width="33" height="33" viewBox="0 0 33 33" fill="none" xmlns="http://www.w3.org/2000/svg">
<path d="M6.875 13.75H9.625C12.375 13.75 13.75 12.375 13.75 9.625V6.875C13.75 4.125 12.375 2.75 9.625 2.75H6.875C4.125 2.75 2.75 4.125 2.75 6.875V9.625C2.75 12.375 4.125 13.75 6.875 13.75Z" fill="#1A1819" stroke="#1A1819" stroke-width="1.5" stroke-miterlimit="10" stroke-linecap="round" stroke-linejoin="round"/>
<path d="M23.375 13.75H26.125C28.875 13.75 30.25 12.375 30.25 9.625V6.875C30.25 4.125 28.875 2.75 26.125 2.75H23.375C20.625 2.75 19.25 4.125 19.25 6.875V9.625C19.25 12.375 20.625 13.75 23.375 13.75Z" fill="#1A1819" stroke="#1A1819" stroke-width="1.5" stroke-miterlimit="10" stroke-linecap="round" stroke-linejoin="round"/>
<path d="M23.375 30.25H26.125C28.875 30.25 30.25 28.875 30.25 26.125V23.375C30.25 20.625 28.875 19.25 26.125 19.25H23.375C20.625 19.25 19.25 20.625 19.25 23.375V26.125C19.25 28.875 20.625 30.25 23.375 30.25Z" fill="#1A1819" stroke="#1A1819" stroke-width="1.5" stroke-miterlimit="10" stroke-linecap="round" stroke-linejoin="round"/>
<path d="M6.875 30.25H9.625C12.375 30.25 13.75 28.875 13.75 26.125V23.375C13.75 20.625 12.375 19.25 9.625 19.25H6.875C4.125 19.25 2.75 20.625 2.75 23.375V26.125C2.75 28.875 4.125 30.25 6.875 30.25Z" fill="#1A1819" stroke="#1A1819" stroke-width="1.5" stroke-miterlimit="10" stroke-linecap="round" stroke-linejoin="round"/>
</svg>
