<svg width="148" height="148" viewBox="0 0 148 148" fill="none" xmlns="http://www.w3.org/2000/svg">
<g opacity="1">
<path d="M0 0.00012207H4V4.00012H0V0.00012207Z" fill="#F8F8F8"/>
<path d="M24 0.00012207H28V4.00012H24V0.00012207Z" fill="#F8F8F8"/>
<path d="M48 0.00012207H52V4.00012H48V0.00012207Z" fill="#F8F8F8"/>
<path d="M72 0.00012207H76V4.00012H72V0.00012207Z" fill="#F8F8F8"/>
<path d="M96 0.00012207H100V4.00012H96V0.00012207Z" fill="#F8F8F8"/>
<path d="M120 0.00012207H124V4.00012H120V0.00012207Z" fill="#F8F8F8"/>
<path d="M144 0.00012207H148V4.00012H144V0.00012207Z" fill="#F8F8F8"/>
<path d="M0 24.0001H4V28.0001H0V24.0001Z" fill="#F8F8F8"/>
<path d="M24 24.0001H28V28.0001H24V24.0001Z" fill="#F8F8F8"/>
<path d="M48 24.0001H52V28.0001H48V24.0001Z" fill="#F8F8F8"/>
<path d="M72 24.0001H76V28.0001H72V24.0001Z" fill="#F8F8F8"/>
<path d="M96 24.0001H100V28.0001H96V24.0001Z" fill="#F8F8F8"/>
<path d="M120 24.0001H124V28.0001H120V24.0001Z" fill="#F8F8F8"/>
<path d="M144 24.0001H148V28.0001H144V24.0001Z" fill="#F8F8F8"/>
<path d="M0 48.0001H4V52.0001H0V48.0001Z" fill="#F8F8F8"/>
<path d="M24 48.0001H28V52.0001H24V48.0001Z" fill="#F8F8F8"/>
<path d="M48 48.0001H52V52.0001H48V48.0001Z" fill="#F8F8F8"/>
<path d="M72 48.0001H76V52.0001H72V48.0001Z" fill="#F8F8F8"/>
<path d="M96 48.0001H100V52.0001H96V48.0001Z" fill="#F8F8F8"/>
<path d="M120 48.0001H124V52.0001H120V48.0001Z" fill="#F8F8F8"/>
<path d="M144 48.0001H148V52.0001H144V48.0001Z" fill="#F8F8F8"/>
<path d="M0 72.0001H4V76.0001H0V72.0001Z" fill="#F8F8F8"/>
<path d="M24 72.0001H28V76.0001H24V72.0001Z" fill="#F8F8F8"/>
<path d="M48 72.0001H52V76.0001H48V72.0001Z" fill="#F8F8F8"/>
<path d="M72 72.0001H76V76.0001H72V72.0001Z" fill="#F8F8F8"/>
<path d="M96 72.0001H100V76.0001H96V72.0001Z" fill="#F8F8F8"/>
<path d="M120 72.0001H124V76.0001H120V72.0001Z" fill="#F8F8F8"/>
<path d="M144 72.0001H148V76.0001H144V72.0001Z" fill="#F8F8F8"/>
<path d="M0 96.0001H4V100H0V96.0001Z" fill="#F8F8F8"/>
<path d="M24 96.0001H28V100H24V96.0001Z" fill="#F8F8F8"/>
<path d="M48 96.0001H52V100H48V96.0001Z" fill="#F8F8F8"/>
<path d="M72 96.0001H76V100H72V96.0001Z" fill="#F8F8F8"/>
<path d="M96 96.0001H100V100H96V96.0001Z" fill="#F8F8F8"/>
<path d="M120 96.0001H124V100H120V96.0001Z" fill="#F8F8F8"/>
<path d="M144 96.0001H148V100H144V96.0001Z" fill="#F8F8F8"/>
<path d="M0 120H4V124H0V120Z" fill="#F8F8F8"/>
<path d="M24 120H28V124H24V120Z" fill="#F8F8F8"/>
<path d="M48 120H52V124H48V120Z" fill="#F8F8F8"/>
<path d="M72 120H76V124H72V120Z" fill="#F8F8F8"/>
<path d="M96 120H100V124H96V120Z" fill="#F8F8F8"/>
<path d="M120 120H124V124H120V120Z" fill="#F8F8F8"/>
<path d="M144 120H148V124H144V120Z" fill="#F8F8F8"/>
<path d="M0 144H4V148H0V144Z" fill="#F8F8F8"/>
<path d="M24 144H28V148H24V144Z" fill="#F8F8F8"/>
<path d="M48 144H52V148H48V144Z" fill="#F8F8F8"/>
<path d="M72 144H76V148H72V144Z" fill="#F8F8F8"/>
<path d="M96 144H100V148H96V144Z" fill="#F8F8F8"/>
<path d="M120 144H124V148H120V144Z" fill="#F8F8F8"/>
<path d="M144 144H148V148H144V144Z" fill="#F8F8F8"/>
</g>
</svg>
