<svg width="56" height="56" viewBox="0 0 56 56" fill="none" xmlns="http://www.w3.org/2000/svg">
<path d="M2.37499 26.2927C2.20522 26.2927 1.86249 26.2927 1.69272 26.4625C1.00725 26.6323 0.667725 27.3178 0.667725 28V39.9572C0.667725 47.6447 8.35522 55.3322 16.0427 55.3322H21.1677V44.4L3.5697 26.8053C3.23017 26.4625 2.88744 26.2928 2.37496 26.2928L2.37499 26.2927Z" fill="#B62E32"/>
<path d="M54.3072 26.4625C54.1375 26.2927 53.7947 26.2927 53.625 26.2927C53.1125 26.2927 52.7697 26.4625 52.4302 26.8052L31.4177 47.8177V31.075C53.4552 27.8302 41.498 1.69272 41.498 1.69272C41.325 1.18022 40.6427 0.667725 39.9573 0.667725C39.275 0.667725 38.5895 1.18022 38.4198 1.86246L33.977 9.7197L29.5343 1.86246C29.3677 1.1802 28.6822 0.667725 28 0.667725C27.3177 0.667725 26.6322 1.18022 26.4625 1.86246L22.0197 9.7197L17.5769 1.86246C17.4072 1.1802 16.7249 0.667725 16.0426 0.667725C15.3604 0.667725 14.6749 1.18022 14.5051 1.86246C14.5051 1.86246 2.54789 28 24.5854 31.2447L24.5822 55.3322H39.9572C47.6447 55.3322 55.3322 47.6447 55.3322 39.9572V28C55.3322 27.3177 54.9927 26.6322 54.3072 26.4625L54.3072 26.4625Z" fill="#B62E32"/>
</svg>
