<svg width="208" height="145" viewBox="0 0 208 145" fill="none" xmlns="http://www.w3.org/2000/svg">
<path d="M207.204 88.7397C206.834 90.1659 206.567 91.4664 206.165 92.719C197.525 119.573 179.572 136.628 152.106 143.09C136.234 146.823 120.762 144.672 105.974 137.735C105.428 137.478 104.553 137.455 104.015 137.709C92.738 143.082 80.8401 145.462 68.4166 144.619C49.2769 143.321 33.0853 135.559 19.9977 121.508C11.3975 112.274 5.69508 101.437 2.82501 89.1497C0.993801 81.3041 0.43035 73.358 1.37363 65.3288C4.02234 42.733 14.9241 25.1579 33.7267 12.5105C42.425 6.65963 52.0816 3.11544 62.4777 1.63387C76.9715 -0.431278 90.8263 1.6892 104.037 7.98022C104.784 8.33489 105.348 8.23679 106.029 7.90979C117.125 2.56708 128.869 0.179964 141.114 0.977346C161.793 2.32309 178.898 11.0339 192.323 26.8457C198.274 33.8536 202.575 41.8149 205.461 50.5408C205.602 50.9659 205.705 51.4036 205.871 51.9947C205.34 52.0274 204.942 52.0727 204.548 52.0727C197.63 52.0777 190.713 52.0601 183.796 52.0953C182.928 52.1003 182.475 51.8438 182.07 51.0489C174.4 35.9993 162.281 26.7703 145.707 23.5153C139.522 22.3004 133.299 22.5293 127.113 23.7342C126.759 23.8046 126.417 23.9455 125.878 24.114C138.232 38.0795 144.787 54.2208 144.784 72.8071C144.782 91.3959 138.242 107.542 125.738 121.661C128.082 122.023 130.119 122.449 132.177 122.64C142.103 123.57 151.525 121.767 160.329 117.073C171.631 111.046 179.499 101.951 184.022 89.9798C184.394 88.9912 184.819 88.6365 185.881 88.6441C192.461 88.6919 199.044 88.6667 205.627 88.6717C206.072 88.6692 206.522 88.707 207.204 88.7397ZM104.875 111.109C121.947 97.4882 129.33 70.7395 116.345 48.0631C102.724 24.275 73.3342 16.0823 49.7901 28.4355C25.524 41.1659 16.2749 70.1433 27.5916 94.0069C39.8265 119.8 66.8646 126.156 84.0247 121.445C75.5452 111.977 69.7422 101.186 66.9199 88.795C67.2369 88.7271 67.3551 88.6793 67.4758 88.6793C74.5617 88.6743 81.6451 88.6567 88.731 88.707C89.1108 88.7095 89.6591 89.1723 89.8403 89.5546C90.8238 91.6324 91.6086 93.8082 92.6575 95.8507C95.676 101.734 99.7635 106.788 104.875 111.109Z" fill="#B62E32"/>
</svg>
