<svg width="24" height="25" viewBox="0 0 24 25" fill="none" xmlns="http://www.w3.org/2000/svg">
<g clip-path="url(#clip0_2316_18472)">
<path d="M23.1463 18.3828V11.5658L23.3409 11.4526C23.7538 11.2129 24 10.7852 24 10.3083C24 9.83144 23.7538 9.40297 23.3409 9.16329L13.3622 3.36665C12.9484 3.12649 12.4784 3 12 3C11.5216 3 11.0516 3.12649 10.6378 3.36665L0.658299 9.16411C0.246246 9.40379 0 9.83144 0 10.3083C0 10.7852 0.246246 11.2129 0.658299 11.4534L3.68385 13.2116V17.2985C3.68454 17.7656 3.80788 18.2243 4.04153 18.6288C4.27517 19.0333 4.61093 19.3693 5.01522 19.6033L9.18007 22.0042C10.0493 22.5049 11.0245 22.7561 11.9996 22.7561C12.9747 22.7561 13.949 22.5057 14.8191 22.0042L18.9831 19.6033C19.3877 19.3696 19.7237 19.0336 19.9575 18.6291C20.1913 18.2245 20.3147 17.7657 20.3153 17.2985V13.2108L21.6689 12.4244V18.3828C21.4364 18.5407 21.2608 18.7691 21.1677 19.0342C21.0746 19.2994 21.0689 19.5874 21.1516 19.8561C21.2342 20.1247 21.4008 20.3597 21.6269 20.5267C21.8529 20.6936 22.1266 20.7837 22.4076 20.7837C22.6886 20.7837 22.9623 20.6936 23.1883 20.5267C23.4144 20.3597 23.581 20.1247 23.6636 19.8561C23.7463 19.5874 23.7406 19.2994 23.6475 19.0342C23.5544 18.7691 23.3788 18.5407 23.1463 18.3828ZM18.8387 17.2976H18.8379C18.8379 17.7195 18.6121 18.1119 18.246 18.322L14.082 20.7229C13.4485 21.0863 12.7308 21.2775 12.0004 21.2775C11.27 21.2775 10.5524 21.0863 9.91881 20.7229L5.75396 18.322C5.57418 18.2181 5.42487 18.0688 5.321 17.889C5.21713 17.7092 5.16235 17.5053 5.16215 17.2976V14.0693L10.6378 17.2508C11.0518 17.491 11.5218 17.6175 12.0004 17.6175C12.479 17.6175 12.949 17.491 13.363 17.2508L18.8387 14.0693V17.2976ZM12.6201 15.9736C12.4317 16.0829 12.2178 16.1404 12 16.1404C11.7822 16.1404 11.5683 16.0829 11.3799 15.9736L1.62933 10.3083L11.379 4.64302C11.5675 4.53377 11.7814 4.47622 11.9992 4.47622C12.217 4.47622 12.4309 4.53377 12.6193 4.64302L22.3698 10.3075L12.6201 15.9736Z" fill="#777E90"/>
</g>
<defs>
<clipPath id="clip0_2316_18472">
<rect width="24" height="24" fill="white" transform="translate(0 0.5)"/>
</clipPath>
</defs>
</svg>
