<svg width="20" height="20" viewBox="0 0 20 20" fill="none" xmlns="http://www.w3.org/2000/svg">
<path d="M16.6649 18.9596H3.33158C2.72393 18.9592 2.14129 18.7176 1.71162 18.2879C1.28194 17.8583 1.04036 17.2756 1.03992 16.668V6.66797C1.03992 6.50221 1.10577 6.34324 1.22298 6.22603C1.34019 6.10882 1.49916 6.04297 1.66492 6.04297H18.3316C18.4973 6.04297 18.6563 6.10882 18.7735 6.22603C18.8907 6.34324 18.9566 6.50221 18.9566 6.66797V16.668C18.9561 17.2756 18.7146 17.8583 18.2849 18.2879C17.8552 18.7176 17.2726 18.9592 16.6649 18.9596ZM2.28992 7.29297V16.668C2.29036 16.9441 2.40025 17.2088 2.5955 17.4041C2.79076 17.5993 3.05545 17.7092 3.33158 17.7096H16.6649C16.941 17.7092 17.2057 17.5993 17.401 17.4041C17.5963 17.2088 17.7061 16.9441 17.7066 16.668V7.29297H2.28992Z" fill="#ffffff"/>
<path d="M18.3317 7.29298H1.66502C1.55852 7.29297 1.45378 7.26576 1.36076 7.21391C1.26773 7.16206 1.18949 7.08729 1.13348 6.99671C1.07746 6.90613 1.04552 6.80274 1.04068 6.69635C1.03585 6.58996 1.05828 6.4841 1.10585 6.38881L3.37585 1.84881C3.49623 1.60605 3.68222 1.40188 3.91273 1.25945C4.14324 1.11702 4.40905 1.04202 4.68002 1.04298H15.3167C15.5878 1.042 15.8537 1.11708 16.0842 1.25967C16.3147 1.40227 16.5007 1.60667 16.6209 1.84964L18.8909 6.38881C18.9384 6.4841 18.9609 6.58996 18.956 6.69635C18.9512 6.80274 18.9192 6.90613 18.8632 6.99671C18.8072 7.08729 18.729 7.16206 18.6359 7.21391C18.5429 7.26576 18.4382 7.29297 18.3317 7.29298ZM2.67668 6.04298H17.32L15.5025 2.40798C15.4855 2.3733 15.459 2.34412 15.4261 2.32378C15.3933 2.30344 15.3553 2.29277 15.3167 2.29298H4.68002C4.6415 2.29288 4.60371 2.30351 4.57089 2.32368C4.53807 2.34384 4.51151 2.37274 4.49418 2.40714L2.67668 6.04298Z" fill="#ffffff"/>
<path d="M9.99817 15.626C9.83241 15.626 9.67344 15.5601 9.55623 15.4429C9.43902 15.3257 9.37317 15.1667 9.37317 15.001V10.001C9.37317 9.83522 9.43902 9.67625 9.55623 9.55904C9.67344 9.44182 9.83241 9.37598 9.99817 9.37598C10.1639 9.37598 10.3229 9.44182 10.4401 9.55904C10.5573 9.67625 10.6232 9.83522 10.6232 10.001V15.001C10.6232 15.1667 10.5573 15.3257 10.4401 15.4429C10.3229 15.5601 10.1639 15.626 9.99817 15.626Z" fill="#ffffff"/>
<path d="M9.99808 15.626C9.91599 15.6262 9.83468 15.6101 9.75886 15.5786C9.68304 15.5472 9.61423 15.501 9.55642 15.4427L7.05642 12.9427C6.94602 12.8242 6.88591 12.6675 6.88877 12.5056C6.89163 12.3437 6.95722 12.1892 7.07173 12.0747C7.18624 11.9601 7.34073 11.8946 7.50265 11.8917C7.66456 11.8888 7.82127 11.9489 7.93975 12.0593L9.99808 14.1168L12.0564 12.0593C12.1749 11.9489 12.3316 11.8888 12.4935 11.8917C12.6554 11.8946 12.8099 11.9601 12.9244 12.0747C13.0389 12.1892 13.1045 12.3437 13.1074 12.5056C13.1103 12.6675 13.0501 12.8242 12.9397 12.9427L10.4397 15.4427C10.3819 15.501 10.3131 15.5472 10.2373 15.5786C10.1615 15.6101 10.0802 15.6262 9.99808 15.626Z" fill="#ffffff"/>
</svg>
