<svg width="24" height="24" viewBox="0 0 24 24" fill="none" xmlns="http://www.w3.org/2000/svg">
<path d="M23.1778 6.49486L17.0635 0.141469C17.0204 0.0967411 16.9688 0.0611598 16.9116 0.0368525C16.8545 0.0125453 16.793 1.12628e-05 16.7309 0L7.61794 0C6.59808 0 5.76834 0.829406 5.76834 1.84884V8.3077H2.0752C1.31217 8.3077 0.691406 8.92828 0.691406 9.69112V16.6166C0.691406 17.3794 1.31217 18 2.0752 18H5.76834V22.1544C5.76834 23.172 6.59808 24 7.61794 24H21.4572C22.4771 24 23.3068 23.1725 23.3068 22.1554V6.81492C23.3068 6.69557 23.2606 6.58086 23.1778 6.49486ZM16.8453 1.24598L21.8646 6.46153H16.8453V1.24598ZM2.0752 17.0769C1.82114 17.0769 1.61452 16.8705 1.61452 16.6166V9.69112C1.61452 9.4373 1.82119 9.23077 2.0752 9.23077H14.5384C14.7925 9.23077 14.9991 9.4373 14.9991 9.69112V16.6166C14.9991 16.8705 14.7924 17.0769 14.5384 17.0769H2.0752ZM22.3837 22.1554C22.3837 22.6635 21.9681 23.0769 21.4572 23.0769H7.61794C7.10705 23.0769 6.69141 22.6631 6.69141 22.1544V18H14.5384C15.3015 18 15.9222 17.3794 15.9222 16.6166V9.69112C15.9222 8.92828 15.3015 8.3077 14.5384 8.3077H6.69141V1.84884C6.69141 1.33833 7.10705 0.923062 7.61794 0.923062H15.9222V6.92306C15.9222 7.17797 16.1288 7.38459 16.3837 7.38459H22.3837V22.1554Z" fill="#2D2D2B"/>
<path d="M6.20945 11.7142C6.05622 11.5149 5.866 11.3856 5.63884 11.3261C5.491 11.2864 5.1737 11.2666 4.68691 11.2666H3.40234V15.2311H4.20283V13.7356H4.72478C5.08717 13.7356 5.36392 13.7167 5.55503 13.6788C5.69566 13.6482 5.83403 13.5856 5.97016 13.4909C6.10628 13.3962 6.2185 13.266 6.30686 13.1001C6.39522 12.9343 6.43938 12.7296 6.43938 12.4862C6.43933 12.1707 6.36269 11.9134 6.20945 11.7142ZM5.52391 12.8054C5.46353 12.8937 5.38014 12.9586 5.27373 13.0001C5.16733 13.0416 4.95644 13.0623 4.64092 13.0623H4.20283V11.9373H4.58955C4.87802 11.9373 5.07002 11.9463 5.16555 11.9643C5.29534 11.9878 5.40264 12.0464 5.48734 12.1401C5.57209 12.2339 5.61447 12.3529 5.61447 12.4971C5.61452 12.6143 5.58428 12.717 5.52391 12.8054ZM10.2876 12.3497C10.201 12.0964 10.0748 11.8823 9.90897 11.7074C9.74313 11.5325 9.54386 11.4108 9.31131 11.3423C9.13825 11.2918 8.88672 11.2666 8.55681 11.2666H7.09375V15.2311H8.60008C8.89577 15.2311 9.13192 15.2032 9.30859 15.1473C9.5448 15.0716 9.7323 14.9661 9.87109 14.8309C10.055 14.6524 10.1965 14.4189 10.2957 14.1305C10.3768 13.8943 10.4174 13.613 10.4174 13.2867C10.4174 12.9153 10.3741 12.603 10.2876 12.3497ZM9.5087 13.9777C9.45461 14.1553 9.38477 14.2829 9.29913 14.3604C9.21349 14.4379 9.10577 14.4929 8.97597 14.5253C8.87683 14.5506 8.71544 14.5632 8.49189 14.5632H7.89424V11.9373H8.25391C8.5802 11.9373 8.7993 11.9499 8.91105 11.9752C9.06067 12.0076 9.18419 12.0698 9.28155 12.1618C9.37891 12.2537 9.45461 12.3817 9.5087 12.5458C9.5628 12.7098 9.58984 12.9451 9.58984 13.2516C9.58984 13.5581 9.5628 13.8001 9.5087 13.9777ZM13.8194 11.9373V11.2666H11.1016V15.2311H11.902V13.5464H13.5571V12.8757H11.902V11.9373H13.8194Z" fill="#2D2D2B"/>
</svg>
